<svg width="512" height="512" viewBox="0 0 512 512" fill="none" xmlns="http://www.w3.org/2000/svg">
  <defs>
    <linearGradient id="mainGradient" x1="0%" y1="0%" x2="100%" y2="100%">
      <stop offset="0%" stop-color="#a78bfa"/>
      <stop offset="55%" stop-color="#67e8f9"/>
      <stop offset="100%" stop-color="#fbbf24"/>
    </linearGradient>

    <!-- Lighter premium background -->
    <radialGradient id="bgGradient" cx="50%" cy="45%" r="60%">
      <stop offset="0%" stop-color="#2b3548"/>
      <stop offset="100%" stop-color="#0f172a"/>
    </radialGradient>

    <filter id="ringGlow" x="-80%" y="-80%" width="260%" height="260%">
      <feGaussianBlur stdDeviation="10"/>
      <feColorMatrix type="matrix"
        values="1 0 0 0 0
                0 1 0 0 0
                0 0 1 0 0
                0 0 0 0.45 0"/>
    </filter>
  </defs>

  <!-- Background -->
  <circle cx="256" cy="256" r="205" fill="url(#bgGradient)" />

  <!-- Core symbol -->
  <g>
    <!-- Glow ring -->
    <circle cx="256" cy="256" r="132"
            stroke="url(#mainGradient)"
            stroke-width="20"
            opacity="0.45"
            fill="none"
            filter="url(#ringGlow)" />

    <!-- Sharp core ring -->
    <circle cx="256" cy="256" r="132"
            stroke="url(#mainGradient)"
            stroke-width="14"
            fill="none" />

    <!-- Nodes -->
    <circle cx="256" cy="170" r="14" fill="url(#mainGradient)"/>
    <circle cx="190" cy="236" r="12" fill="url(#mainGradient)"/>
    <circle cx="322" cy="236" r="12" fill="url(#mainGradient)"/>
    <circle cx="172" cy="310" r="11" fill="url(#mainGradient)"/>
    <circle cx="340" cy="310" r="11" fill="url(#mainGradient)"/>
    <circle cx="256" cy="350" r="14" fill="url(#mainGradient)"/>

    <!-- Connections -->
    <g stroke="url(#mainGradient)" stroke-linecap="round" stroke-width="3">
      <line x1="256" y1="170" x2="190" y2="236"/>
      <line x1="256" y1="170" x2="322" y2="236"/>
      <line x1="190" y1="236" x2="172" y2="310"/>
      <line x1="322" y1="236" x2="340" y2="310"/>
      <line x1="172" y1="310" x2="256" y2="350"/>
      <line x1="340" y1="310" x2="256" y2="350"/>
    </g>
  </g>
</svg>
